<svg width="37" height="37" viewBox="0 0 37 37" fill="none" xmlns="http://www.w3.org/2000/svg">
<path d="M34.031 24.2862C31.7658 24.2862 29.5415 23.9319 27.4338 23.2354C26.401 22.8831 25.1313 23.2063 24.501 23.8537L20.3407 26.9942C15.516 24.4188 12.544 21.4478 10.0038 16.6593L13.0519 12.6074C13.8438 11.8166 14.1279 10.6613 13.7876 9.57729C13.088 7.45847 12.7327 5.23529 12.7327 2.96905C12.7328 1.3319 11.4009 0 9.76383 0H2.96895C1.3319 0 0 1.3319 0 2.96895C0 21.7339 15.2661 36.9999 34.031 36.9999C35.6681 36.9999 37 35.668 37 34.031V27.2551C36.9999 25.6181 35.668 24.2862 34.031 24.2862Z" fill="white"/>
</svg>
