<svg width="56" height="56" viewBox="0 0 56 56" fill="none" xmlns="http://www.w3.org/2000/svg">
<path d="M23.3267 33.1279H51.6852L49.5176 26.624H25.4943L23.3267 33.1279Z" fill="white"/>
<path d="M42.3838 49.3877H52.1396V56H42.3838V49.3877Z" fill="white"/>
<path d="M35.8799 13.6162H0V23.3721H35.8799V13.6162ZM9.86426 20.1201H6.6123V16.8682H9.86426V20.1201ZM22.8721 20.1201H13.1162V16.8682H22.8721V20.1201ZM29.376 20.1201H26.124V16.8682H29.376V20.1201Z" fill="white"/>
<path d="M19.6201 36.3799V46.1357H55.5V36.3799H19.6201ZM29.376 42.8838H26.124V39.6318H29.376V42.8838ZM42.3838 42.8838H32.6279V39.6318H42.3838V42.8838ZM48.8877 42.8838H45.6357V39.6318H48.8877V42.8838Z" fill="white"/>
<path d="M22.8721 49.3877H32.6279V56H22.8721V49.3877Z" fill="white"/>
<path d="M3.36035 26.624H13.1162V33.1279H3.36035V26.624Z" fill="white"/>
<path d="M28.9216 0.5H7.06609L3.81458 10.3643H32.1731L28.9216 0.5Z" fill="white"/>
</svg>
