<svg width="60" height="60" viewBox="0 0 60 60" fill="none" xmlns="http://www.w3.org/2000/svg">
<path d="M51.8065 40.6318C53.9237 38.5636 55.248 35.688 55.248 32.502V24.3721H46.4449L43.1929 27.624H3V37.3799H4.62598C6.743 37.3799 8.63932 38.7433 9.3128 40.6318H3V43.8838H58.5V40.6318H51.8065ZM19.3682 37.3799H16.1162V34.1279H19.3682V37.3799ZM25.8721 37.3799H22.6201V34.1279H25.8721V37.3799ZM32.376 37.3799H29.124V34.1279H32.376V37.3799ZM38.9883 37.3799H35.7363V34.1279H38.9883V37.3799ZM45.4922 37.3799H42.2402V34.1279H45.4922V37.3799Z" fill="white"/>
<path d="M9.6123 47.2441H12.8643V50.4961H9.6123V47.2441Z" fill="white"/>
<path d="M48.7441 53.748H51.9961V57H48.7441V53.748Z" fill="white"/>
<path d="M16.1162 47.2441H42.2402V50.4961H16.1162V47.2441Z" fill="white"/>
<path d="M19.3682 53.748H45.4922V57H19.3682V53.748Z" fill="white"/>
<path d="M29.124 21.1201H25.8721V17.8682H16.1162V14.6162H25.8721V11.3643H29.124V8.1123H18.7473L15.4953 1.5H9.6123V8.1123H6.36035V11.3643H9.6123V21.1201H6.36035V24.3721H29.124V21.1201Z" fill="white"/>
</svg>
