<svg width="50" height="50" viewBox="0 0 50 50" fill="none" xmlns="http://www.w3.org/2000/svg">
<path d="M47.2064 26.1637L25.0868 4.04409C24.6947 3.65197 24.0572 3.65197 23.6651 4.04409L1.5456 26.1637C1.35661 26.3527 1.25 26.608 1.25 26.8755V44.9733C1.25 45.3795 1.49536 45.7475 1.87136 45.9024C2.24736 46.0592 2.67775 45.9728 2.96731 45.6852L24.375 24.2755L45.7828 45.6832C45.9758 45.8763 46.2332 45.9788 46.4946 45.9788C46.6233 45.9788 46.756 45.9547 46.8787 45.9024C47.2547 45.7475 47.5001 45.3795 47.5001 44.9733V26.8755C47.5 26.608 47.3934 26.3527 47.2064 26.1637Z" fill="white"/>
</svg>
