<svg width="60" height="60" viewBox="0 0 60 60" fill="none" xmlns="http://www.w3.org/2000/svg">
<path d="M34.5686 21.8465L34.5672 26.144H45.2904V21.7961C48.5972 19.8809 50.6807 16.324 50.6807 12.4528C50.6807 10.2193 50.0036 8.07532 48.7229 6.25319C47.4722 4.47455 45.7396 3.12774 43.7131 2.35931L41.4478 1.5V8.75198L39.8862 9.7161L38.3246 8.75198V1.5L36.0597 2.35888C34.0332 3.12774 32.3007 4.47455 31.05 6.25319C29.7693 8.07532 29.0922 10.2188 29.0922 12.4528C29.0922 16.3688 31.2087 19.9444 34.5686 21.8465Z" fill="white"/>
<path d="M55.5216 34.3242C55.5216 31.8642 53.6938 29.8237 51.3251 29.4876H31.2235V24.0964H27.1387L18.1633 31.3127V55.9435L23.0731 58.5002H47.2225V58.4084C49.4686 57.9688 51.1694 55.9862 51.1694 53.6135C51.1694 52.7494 50.9432 51.9379 50.5484 51.233C51.8469 50.3541 52.7023 48.8668 52.7023 47.1839C52.7023 46.2993 52.4653 45.47 52.0526 44.7538C53.3116 43.8688 54.137 42.4064 54.137 40.7543C54.137 39.8597 53.8934 39.0217 53.4716 38.2998C54.7114 37.4123 55.5216 35.9615 55.5216 34.3242Z" fill="white"/>
<path d="M4.5 28.6466H14.8196V58.4998H4.5V28.6466Z" fill="white"/>
</svg>
