<svg width="60" height="60" viewBox="0 0 60 60" fill="none" xmlns="http://www.w3.org/2000/svg">
<path d="M44.9857 11.1408H51.7369L43.8417 3.04504V10.0334C43.8417 10.6294 44.3893 11.1408 44.9857 11.1408Z" fill="white"/>
<path d="M41.7571 10.0335V1.5H19.9323C18.3522 1.5 17.0035 2.80282 17.0035 4.3835V44.9622C17.0305 46.5663 18.3277 47.8589 19.9323 47.8803H50.293C51.8976 47.8589 53.1949 46.5663 53.2218 44.9622V13.2254H44.9856C43.24 13.2254 41.7571 11.779 41.7571 10.0335ZM35.1127 22.1145C32.7854 22.114 30.82 20.3852 30.5228 18.0768C30.2256 15.7689 31.6887 13.5984 33.9402 13.0086V11.5317C33.9402 10.9561 34.4068 10.4894 34.9824 10.4894C35.558 10.4894 36.0247 10.9561 36.0247 11.5317V12.9485C38.1845 13.3857 39.7377 15.2824 39.7407 17.4855C39.7407 18.061 39.2741 18.5277 38.6985 18.5277C38.1229 18.5277 37.6562 18.061 37.6562 17.4855C37.6562 16.0809 36.5173 14.9419 35.1122 14.9424C33.7076 14.9424 32.5686 16.0814 32.5691 17.486C32.5691 18.8911 33.7081 20.0295 35.1127 20.0295C37.4913 20.03 39.4822 21.8331 39.7178 24.1995C39.9535 26.5665 38.3565 28.7263 36.0247 29.1955V30.4225C36.0247 30.9981 35.558 31.4648 34.9824 31.4648C34.4068 31.4648 33.9402 30.9981 33.9402 30.4225V29.135C31.906 28.5996 30.4872 26.7614 30.4846 24.6581C30.4846 24.082 30.9513 23.6158 31.5269 23.6158C32.1025 23.6158 32.5691 24.082 32.5691 24.6581C32.5686 26.0627 33.7076 27.2016 35.1127 27.2016C36.5173 27.2016 37.6562 26.0627 37.6562 24.6581C37.6562 23.253 36.5178 22.114 35.1127 22.114V22.1145ZM22.5639 34.2007H37.1972C37.7728 34.2007 38.2394 34.6674 38.2394 35.243C38.2394 35.8185 37.7728 36.2852 37.1972 36.2852H22.5639C21.9883 36.2852 21.5217 35.8185 21.5217 35.243C21.5217 34.6674 21.9883 34.2007 22.5639 34.2007ZM48.0498 40.9753C48.0498 41.5509 47.5831 42.0176 47.0075 42.0176H22.5639C21.9883 42.0176 21.5217 41.5509 21.5217 40.9753C21.5217 40.3998 21.9883 39.9331 22.5639 39.9331H47.0075C47.5831 39.9331 48.0498 40.3998 48.0498 40.9753Z" fill="white"/>
<path d="M14.919 44.9622V10.6198H8.20699C6.60239 10.6411 5.30517 11.9338 5.2782 13.5379V54.1165C5.2782 55.6972 6.62682 57 8.20699 57H38.5677C40.1479 57 41.4965 55.6972 41.4965 54.1165V49.9648H19.9323C17.2025 49.9648 14.919 47.6915 14.919 44.9622Z" fill="white"/>
</svg>
