<svg width="60" height="60" viewBox="0 0 60 60" fill="none" xmlns="http://www.w3.org/2000/svg">
<path d="M19.1374 29.5846H22.2527V32.7H19.1374V29.5846Z" fill="white"/>
<path d="M19.1374 23.3538H22.2527V26.4691H19.1374V23.3538Z" fill="white"/>
<path d="M19.1374 10.8923H40.9451V14.0077H19.1374V10.8923Z" fill="white"/>
<path d="M25.3679 49.8346H34.714V56.1692H25.3679V49.8346Z" fill="white"/>
<path d="M19.1374 43.6038H40.9451V46.7191H19.1374V43.6038Z" fill="white"/>
<path d="M50.291 40.4885V3H9.79102V40.4885H50.291ZM31.5987 35.8154H28.4833V32.7H31.5987V35.8154ZM31.5987 29.5846H28.4833V26.4692H31.5987V29.5846ZM31.5987 23.3538H28.4833V20.2385H31.5987V23.3538ZM37.8295 35.8154H34.7141V32.7H37.8295V35.8154ZM37.8295 29.5846H34.7141V26.4692H37.8295V29.5846ZM37.8295 23.3538H34.7141V20.2385H37.8295V23.3538ZM44.0602 35.8154H40.9449V32.7H44.0602V35.8154ZM44.0602 29.5846H40.9449V26.4692H44.0602V29.5846ZM44.0602 23.3538H40.9449V20.2385H44.0602V23.3538ZM16.0218 7.77692H44.0602V17.1231H16.0218V7.77692ZM16.0218 20.2385H25.3679V35.8154H16.0218V20.2385Z" fill="white"/>
</svg>
