<svg width="62" height="62" viewBox="0 0 62 62" fill="none" xmlns="http://www.w3.org/2000/svg">
<g filter="url(#filter0_d)">
<path d="M52.5542 34.3585C52.5542 35.3855 51.7216 36.2182 50.6945 36.2182C49.6675 36.2182 48.8348 35.3855 48.8348 34.3585C48.8348 33.3314 49.6675 32.4988 50.6945 32.4988C51.7216 32.4988 52.5542 33.3314 52.5542 34.3585V34.3585Z" fill="white"/>
<path d="M46.7742 12.4779V0.407349L37.4292 3.72997L46.2184 12.4779H46.7742Z" fill="white"/>
<path d="M16.1665 11.3278L12.9601 12.4779H15.0163L16.1665 11.3278Z" fill="white"/>
<path d="M30.5547 0L18.0768 12.4779H43.1441L30.5547 0Z" fill="white"/>
<path d="M43.6636 31.0501V37.5654C43.6636 39.9518 45.5428 41.9626 47.9293 41.9626H57.5944V26.8146H47.9293C45.6089 26.7792 43.699 28.6315 43.6636 30.9519V31.0501ZM54.7187 34.3585C54.7187 36.5806 52.9177 38.3822 50.695 38.3822C48.4729 38.3822 46.6713 36.5806 46.6713 34.3585C46.6713 32.1364 48.4729 30.3348 50.695 30.3348C52.9172 30.3348 54.7187 32.1364 54.7187 34.3585V34.3585Z" fill="white"/>
<path d="M54.5632 14.642H7.33641C5.69544 14.642 4.30542 15.9443 4.30542 17.5847V51.0307C4.30542 52.6717 5.69544 53.9999 7.33641 53.9999H54.5632C56.2041 53.9999 57.5941 52.6717 57.5941 51.0307V44.1266H47.929C44.3491 44.1266 41.4993 41.1453 41.4993 37.5654V31.0501C41.4819 27.5336 44.3179 24.6685 47.8344 24.6505H47.929H57.5941V17.5847C57.5941 15.9443 56.2041 14.642 54.5632 14.642V14.642ZM26.8923 33.5686C29.3616 33.5686 31.4284 35.4404 31.6731 37.8977C31.9177 40.3549 30.2598 42.5971 27.839 43.0837V44.3469C27.839 44.9444 27.3545 45.4289 26.757 45.4289C26.1595 45.4289 25.675 44.9444 25.675 44.3469V43.0219C23.5633 42.4655 22.0903 40.5572 22.0877 38.3737C22.0877 37.7756 22.5722 37.2917 23.1697 37.2917C23.7672 37.2917 24.2517 37.7756 24.2517 38.3737C24.2517 39.8319 25.4341 41.0142 26.8923 41.0142C28.351 41.0142 29.5333 39.8319 29.5333 38.3732C29.5333 36.915 28.351 35.7326 26.8923 35.7326C24.4762 35.7321 22.4359 33.9379 22.1273 31.5414C21.8188 29.1449 23.3377 26.8922 25.675 26.2799V24.7356C25.675 24.138 26.1595 23.6536 26.757 23.6536C27.3545 23.6536 27.839 24.138 27.839 24.7356V26.217C30.0812 26.6708 31.6942 28.6404 31.6974 30.928C31.6974 31.5256 31.2129 32.01 30.6154 32.01C30.0173 32.01 29.5333 31.5256 29.5333 30.928C29.5333 29.4693 28.351 28.287 26.8923 28.287C25.4341 28.287 24.2517 29.4693 24.2517 30.928C24.2517 32.3862 25.4341 33.5686 26.8923 33.5686Z" fill="white"/>
</g>
<defs>
<filter id="filter0_d" x="-3" y="0" width="68" height="68" filterUnits="userSpaceOnUse" color-interpolation-filters="sRGB">
<feFlood flood-opacity="0" result="BackgroundImageFix"/>
<feColorMatrix in="SourceAlpha" type="matrix" values="0 0 0 0 0 0 0 0 0 0 0 0 0 0 0 0 0 0 127 0"/>
<feOffset dy="4"/>
<feGaussianBlur stdDeviation="2"/>
<feColorMatrix type="matrix" values="0 0 0 0 0 0 0 0 0 0 0 0 0 0 0 0 0 0 0.25 0"/>
<feBlend mode="normal" in2="BackgroundImageFix" result="effect1_dropShadow"/>
<feBlend mode="normal" in="SourceGraphic" in2="effect1_dropShadow" result="shape"/>
</filter>
</defs>
</svg>
