<svg width="60" height="60" viewBox="0 0 60 60" fill="none" xmlns="http://www.w3.org/2000/svg">
<path d="M19.8482 23.9812H33.8326C37.2208 21.5418 39.1562 17.8736 39.1562 13.8343C39.1605 7.97341 35.0375 2.92033 29.2952 1.74878C23.5529 0.577233 17.7793 3.61119 15.4875 9.0052C13.1958 14.3992 15.019 20.6609 19.8482 23.9812ZM26.7869 14.3357C24.7678 14.3357 23.0436 12.8782 22.7079 10.8872C22.3728 8.89561 23.5243 6.95379 25.4317 6.29205V5.27879C25.4317 4.68004 25.9171 4.19459 26.5159 4.19459C27.1146 4.19459 27.6001 4.68004 27.6001 5.27879V6.14382C29.5313 6.53345 30.921 8.2291 30.9236 10.1995C30.9236 10.7983 30.4382 11.2837 29.8394 11.2837C29.2407 11.2837 28.7552 10.7983 28.7552 10.1995C28.7552 9.11266 27.8743 8.23122 26.7875 8.23122C25.7001 8.23122 24.8192 9.11213 24.8192 10.199C24.8192 11.2858 25.7001 12.1673 26.7869 12.1673C28.913 12.1673 30.6928 13.7793 30.903 15.8947C31.1131 18.0107 29.6848 19.9409 27.6001 20.3591V21.4063C27.6001 22.005 27.1146 22.4905 26.5159 22.4905C25.9171 22.4905 25.4317 22.005 25.4317 21.4063V20.2104C23.7689 19.6317 22.6529 18.0647 22.6508 16.3034C22.6508 15.7047 23.1362 15.2192 23.735 15.2192C24.3337 15.2192 24.8192 15.7047 24.8192 16.3034C24.8192 17.3903 25.7001 18.2712 26.7869 18.2712C27.8738 18.2712 28.7552 17.3903 28.7552 16.3034C28.7552 15.2166 27.8738 14.3357 26.7869 14.3357Z" fill="white"/>
<path d="M53.4332 27.57L51.4395 27.3615C51.097 27.3276 50.7798 27.1661 50.5506 26.9093L50.4262 26.7849L50.3473 26.6272C48.9788 23.8902 46.9529 21.4703 44.3255 19.4338L44.2709 19.3925L44.2228 19.3443C43.9649 19.087 43.8252 18.7344 43.8363 18.3707L43.8427 18.2537L44.1868 15.0895C44.3541 13.5824 44.5277 11.9476 44.47 11.6014L44.4621 11.5431C44.461 11.5309 44.4589 11.5188 44.4546 11.5077C44.3837 11.4822 44.3085 11.4706 44.2328 11.4732L44.1952 11.469C43.7135 11.4526 42.8172 11.5384 41.2084 12.0169C41.7717 16.4178 40.2735 20.8324 37.1485 23.9813H37.6403C38.239 23.9813 38.7245 24.4667 38.7245 25.0655C38.7245 25.6642 38.239 26.1497 37.6403 26.1497H16.023C15.4242 26.1497 14.9388 25.6642 14.9388 25.0655C14.9388 24.4667 15.4242 23.9813 16.023 23.9813H16.4825C15.1394 22.6324 14.0822 21.0272 13.3734 19.2606C11.1218 20.9129 9.21284 22.9865 7.75118 25.3667L6.79986 27.1783C5.82683 29.1974 5.23867 31.2525 5.10315 33.1239V34.0525C5.10315 37.8604 6.42187 41.5471 8.87297 44.715C9.22396 45.1158 9.28431 45.6933 9.02438 46.1576L8.97779 46.2466L8.91479 46.3217C6.92956 48.9084 7.04285 52.4098 9.18478 54.6676C10.5194 56.0901 12.3797 56.9022 14.33 56.9139H14.5888C16.501 56.9139 18.2867 56.2437 19.6176 54.9736L21.3296 53.3595C21.5858 53.1086 21.9331 52.9725 22.2921 52.9836H22.4175L22.5398 53.0281C25.9597 53.8386 29.5077 53.9567 32.9737 53.3749L33.0658 53.3902H33.1589C33.5131 53.3627 33.862 53.4866 34.1193 53.7317L35.4205 54.9308C36.7752 56.1875 38.5344 56.9181 40.3809 56.9912C42.2031 57.0806 43.9951 56.4999 45.4181 55.3585C47.6935 53.4982 48.3917 50.3176 47.1043 47.6759C46.9221 47.4165 46.8761 47.0851 46.9804 46.786V46.4959L47.2377 46.1857C48.4913 44.8034 49.5368 43.2459 50.341 41.5619L50.4225 41.3947L50.5564 41.2639C50.7878 41.0077 51.107 40.8462 51.4506 40.8118L53.4332 40.6032C55.0743 40.4354 56.3242 39.0568 56.3316 37.4073V30.7665C56.3242 29.1169 55.0743 27.7384 53.4332 27.57Z" fill="white"/>
</svg>
