<svg width="41" height="56" viewBox="0 0 41 56" fill="none" xmlns="http://www.w3.org/2000/svg">
<path d="M32.2216 7.14736V4.25486H26.4023C25.6952 1.8005 23.429 0 20.7501 0C18.0713 0 15.805 1.8005 15.0979 4.25486H9.27863V7.14736H0.64209V55.5H40.858V7.14736H32.2216ZM28.6146 49.6692V43.2565H35.0275L28.6146 49.6692ZM35.98 40.0046H25.3626V50.622H5.52024V12.0255H9.27863V15.2776H32.2216V12.0255H35.98V40.0046Z" fill="white"/>
<path d="M20.336 19.6449H10.4811V22.897H20.336V19.6449Z" fill="white"/>
<path d="M20.336 24.6715H10.4811V27.9236H20.336V24.6715Z" fill="white"/>
<path d="M31.0181 29.6971H10.4811V32.9492H31.0181V29.6971Z" fill="white"/>
<path d="M31.0181 34.7239H10.4811V37.9759H31.0181V34.7239Z" fill="white"/>
<path d="M23.6532 39.7494H10.4811V43.0015H23.6532V39.7494Z" fill="white"/>
</svg>
