<svg width="60" height="60" viewBox="0 0 60 60" fill="none" xmlns="http://www.w3.org/2000/svg">
<path d="M34.7699 45.2188H7.14947C4.85874 45.2188 2.99985 47.0775 2.99985 49.3686V56.9142H38.9194V49.3686C38.9194 47.0775 37.0606 45.2188 34.7699 45.2188Z" fill="white"/>
<path d="M57.5183 45.8041L32.3056 20.5912L37.1754 15.73C37.9784 16.438 39.2132 16.4034 39.973 15.6436C40.7674 14.8407 40.7674 13.554 39.973 12.7511L29.4735 2.26012C28.6791 1.45716 27.3839 1.45716 26.5896 2.26012C25.7866 3.05454 25.7866 4.34972 26.5896 5.14403L26.5032 5.05768L13.1715 18.3807L13.2578 18.4756C12.4634 17.6726 11.1682 17.6726 10.3739 18.4756C9.57093 19.27 9.57093 20.5652 10.3739 21.3596L20.8648 31.8591C21.6678 32.6535 22.963 32.6535 23.7574 31.8591C24.5518 31.0561 24.5518 29.7696 23.7574 28.9667L23.8437 29.0529L28.7136 24.1917L53.9177 49.3959C54.9107 50.3889 56.5254 50.3889 57.5183 49.3959C58.5113 48.403 58.5113 46.7969 57.5183 45.8041Z" fill="white"/>
</svg>
