<svg width="50" height="50" viewBox="0 0 50 50" fill="none" xmlns="http://www.w3.org/2000/svg">
<path d="M48.1286 4.58742C47.7526 4.43057 47.3203 4.51908 47.0327 4.80459L25.625 26.2143L4.21731 4.80667C3.92973 4.51908 3.4934 4.43264 3.12136 4.58751C2.74536 4.74229 2.5 5.11027 2.5 5.51644V23.6143C2.5 23.8817 2.60661 24.1371 2.79362 24.3261L24.9132 46.4457C25.1103 46.6407 25.3676 46.7393 25.625 46.7393C25.8825 46.7393 26.1398 46.6408 26.3369 46.4457L48.4565 24.3261C48.6435 24.1371 48.7501 23.8817 48.7501 23.6143V5.51644C48.75 5.11027 48.5046 4.74229 48.1286 4.58742Z" fill="white"/>
</svg>
